<mxfile host="app.diagrams.net" agent="Mozilla/5.0 (X11; Linux x86_64; rv:133.0) Gecko/20100101 Firefox/133.0" scale="1" border="0" version="26.0.2">
  <diagram name="Page-1" id="lqh_Il7PUDTA4zO0Oj97">
    <mxGraphModel dx="858" dy="1640" grid="0" gridSize="10" guides="1" tooltips="1" connect="1" arrows="1" fold="1" page="0" pageScale="1" pageWidth="850" pageHeight="1100" math="0" shadow="0">
      <root>
        <mxCell id="0" />
        <mxCell id="1" parent="0" />
        <mxCell id="Nd5IJ-L-UjgMi4WhHVAJ-10" value="" style="edgeStyle=none;curved=1;rounded=0;orthogonalLoop=1;jettySize=auto;html=1;fontSize=16;startSize=8;endSize=8;endArrow=none;endFill=0;" parent="1" source="Nd5IJ-L-UjgMi4WhHVAJ-6" target="Nd5IJ-L-UjgMi4WhHVAJ-8" edge="1">
          <mxGeometry relative="1" as="geometry" />
        </mxCell>
        <mxCell id="Nd5IJ-L-UjgMi4WhHVAJ-3" value="a" style="ellipse;whiteSpace=wrap;html=1;fontSize=16;fillColor=#f8cecc;strokeColor=#b85450;" parent="1" vertex="1">
          <mxGeometry x="-26" y="58" width="60" height="60" as="geometry" />
        </mxCell>
        <mxCell id="Nd5IJ-L-UjgMi4WhHVAJ-4" style="edgeStyle=none;curved=1;rounded=0;orthogonalLoop=1;jettySize=auto;html=1;entryX=1;entryY=0.5;entryDx=0;entryDy=0;fontSize=16;startSize=8;endSize=8;" parent="1" source="Nd5IJ-L-UjgMi4WhHVAJ-3" target="Nd5IJ-L-UjgMi4WhHVAJ-3" edge="1">
          <mxGeometry relative="1" as="geometry" />
        </mxCell>
        <mxCell id="Nd5IJ-L-UjgMi4WhHVAJ-5" value="+" style="ellipse;whiteSpace=wrap;html=1;fontSize=16;fillColor=#f5f5f5;fontColor=#333333;strokeColor=#666666;" parent="1" vertex="1">
          <mxGeometry x="73" y="-136" width="60" height="60" as="geometry" />
        </mxCell>
        <mxCell id="Nd5IJ-L-UjgMi4WhHVAJ-6" value="x" style="ellipse;whiteSpace=wrap;html=1;fontSize=16;fillColor=#f5f5f5;fontColor=#333333;strokeColor=#666666;" parent="1" vertex="1">
          <mxGeometry x="16" y="-41" width="60" height="60" as="geometry" />
        </mxCell>
        <mxCell id="Nd5IJ-L-UjgMi4WhHVAJ-8" value="b" style="ellipse;whiteSpace=wrap;html=1;fontSize=16;fillColor=#f8cecc;strokeColor=#b85450;" parent="1" vertex="1">
          <mxGeometry x="63" y="58" width="60" height="60" as="geometry" />
        </mxCell>
        <mxCell id="Nd5IJ-L-UjgMi4WhHVAJ-14" value="" style="edgeStyle=none;curved=1;rounded=0;orthogonalLoop=1;jettySize=auto;html=1;fontSize=16;startSize=8;endSize=8;endArrow=none;endFill=0;" parent="1" source="Nd5IJ-L-UjgMi4WhHVAJ-5" target="Nd5IJ-L-UjgMi4WhHVAJ-6" edge="1">
          <mxGeometry relative="1" as="geometry">
            <mxPoint x="247" y="-90" as="sourcePoint" />
            <mxPoint x="219" y="-47" as="targetPoint" />
          </mxGeometry>
        </mxCell>
        <mxCell id="AVQ2NDTrIzkf_kXeqUEB-1" value="Q" style="ellipse;whiteSpace=wrap;html=1;fontSize=16;fillColor=#f5f5f5;fontColor=#333333;strokeColor=#666666;" vertex="1" parent="1">
          <mxGeometry x="73" y="-249" width="60" height="60" as="geometry" />
        </mxCell>
        <mxCell id="AVQ2NDTrIzkf_kXeqUEB-5" value="" style="edgeStyle=none;curved=1;rounded=0;orthogonalLoop=1;jettySize=auto;html=1;fontSize=16;startSize=8;endSize=8;endArrow=none;endFill=0;" edge="1" parent="1" source="AVQ2NDTrIzkf_kXeqUEB-1" target="Nd5IJ-L-UjgMi4WhHVAJ-5">
          <mxGeometry relative="1" as="geometry">
            <mxPoint x="97" y="-71" as="sourcePoint" />
            <mxPoint x="69" y="-28" as="targetPoint" />
          </mxGeometry>
        </mxCell>
        <mxCell id="AVQ2NDTrIzkf_kXeqUEB-6" value="" style="edgeStyle=none;curved=1;rounded=0;orthogonalLoop=1;jettySize=auto;html=1;fontSize=16;startSize=8;endSize=8;endArrow=none;endFill=0;" edge="1" parent="1" source="Nd5IJ-L-UjgMi4WhHVAJ-6" target="Nd5IJ-L-UjgMi4WhHVAJ-3">
          <mxGeometry relative="1" as="geometry">
            <mxPoint x="69" y="26" as="sourcePoint" />
            <mxPoint x="90" y="71" as="targetPoint" />
          </mxGeometry>
        </mxCell>
        <mxCell id="AVQ2NDTrIzkf_kXeqUEB-7" value="c" style="ellipse;whiteSpace=wrap;html=1;fontSize=16;fillColor=#f8cecc;strokeColor=#b85450;" vertex="1" parent="1">
          <mxGeometry x="142" y="-41" width="60" height="60" as="geometry" />
        </mxCell>
        <mxCell id="AVQ2NDTrIzkf_kXeqUEB-8" value="" style="edgeStyle=none;curved=1;rounded=0;orthogonalLoop=1;jettySize=auto;html=1;fontSize=16;startSize=8;endSize=8;endArrow=none;endFill=0;" edge="1" parent="1" source="Nd5IJ-L-UjgMi4WhHVAJ-5" target="AVQ2NDTrIzkf_kXeqUEB-7">
          <mxGeometry relative="1" as="geometry">
            <mxPoint x="98" y="-70" as="sourcePoint" />
            <mxPoint x="71" y="-27" as="targetPoint" />
          </mxGeometry>
        </mxCell>
        <mxCell id="AVQ2NDTrIzkf_kXeqUEB-15" value="+" style="ellipse;whiteSpace=wrap;html=1;fontSize=16;fillColor=#f5f5f5;fontColor=#333333;strokeColor=#666666;" vertex="1" parent="1">
          <mxGeometry x="306" y="-145" width="60" height="60" as="geometry" />
        </mxCell>
        <mxCell id="AVQ2NDTrIzkf_kXeqUEB-19" value="+" style="ellipse;whiteSpace=wrap;html=1;fontSize=16;fillColor=#f5f5f5;fontColor=#333333;strokeColor=#666666;" vertex="1" parent="1">
          <mxGeometry x="363" y="-249" width="60" height="60" as="geometry" />
        </mxCell>
        <mxCell id="AVQ2NDTrIzkf_kXeqUEB-20" value="" style="edgeStyle=none;curved=1;rounded=0;orthogonalLoop=1;jettySize=auto;html=1;fontSize=16;startSize=8;endSize=8;endArrow=none;endFill=0;" edge="1" parent="1" source="AVQ2NDTrIzkf_kXeqUEB-19" target="AVQ2NDTrIzkf_kXeqUEB-15">
          <mxGeometry relative="1" as="geometry">
            <mxPoint x="387" y="-71" as="sourcePoint" />
            <mxPoint x="359" y="-28" as="targetPoint" />
          </mxGeometry>
        </mxCell>
        <mxCell id="AVQ2NDTrIzkf_kXeqUEB-24" value="Q" style="ellipse;whiteSpace=wrap;html=1;fontSize=16;fillColor=#f5f5f5;fontColor=#333333;strokeColor=#666666;" vertex="1" parent="1">
          <mxGeometry x="463" y="-145" width="60" height="60" as="geometry" />
        </mxCell>
        <mxCell id="AVQ2NDTrIzkf_kXeqUEB-25" value="" style="edgeStyle=none;curved=1;rounded=0;orthogonalLoop=1;jettySize=auto;html=1;fontSize=16;startSize=8;endSize=8;endArrow=none;endFill=0;" edge="1" parent="1" source="AVQ2NDTrIzkf_kXeqUEB-19" target="AVQ2NDTrIzkf_kXeqUEB-24">
          <mxGeometry relative="1" as="geometry">
            <mxPoint x="389" y="-183" as="sourcePoint" />
            <mxPoint x="360" y="-131" as="targetPoint" />
          </mxGeometry>
        </mxCell>
        <mxCell id="AVQ2NDTrIzkf_kXeqUEB-26" value="b" style="ellipse;whiteSpace=wrap;html=1;fontSize=16;fillColor=#f8cecc;strokeColor=#b85450;" vertex="1" parent="1">
          <mxGeometry x="262" y="-41" width="60" height="60" as="geometry" />
        </mxCell>
        <mxCell id="AVQ2NDTrIzkf_kXeqUEB-27" value="" style="edgeStyle=none;curved=1;rounded=0;orthogonalLoop=1;jettySize=auto;html=1;fontSize=16;startSize=8;endSize=8;endArrow=none;endFill=0;" edge="1" parent="1" source="AVQ2NDTrIzkf_kXeqUEB-15" target="AVQ2NDTrIzkf_kXeqUEB-26">
          <mxGeometry relative="1" as="geometry">
            <mxPoint x="131" y="-72" as="sourcePoint" />
            <mxPoint x="164" y="-25" as="targetPoint" />
          </mxGeometry>
        </mxCell>
        <mxCell id="AVQ2NDTrIzkf_kXeqUEB-28" value="a" style="ellipse;whiteSpace=wrap;html=1;fontSize=16;fillColor=#f8cecc;strokeColor=#b85450;" vertex="1" parent="1">
          <mxGeometry x="351" y="-41" width="60" height="60" as="geometry" />
        </mxCell>
        <mxCell id="AVQ2NDTrIzkf_kXeqUEB-29" value="" style="edgeStyle=none;curved=1;rounded=0;orthogonalLoop=1;jettySize=auto;html=1;fontSize=16;startSize=8;endSize=8;endArrow=none;endFill=0;" edge="1" parent="1" source="AVQ2NDTrIzkf_kXeqUEB-15" target="AVQ2NDTrIzkf_kXeqUEB-28">
          <mxGeometry relative="1" as="geometry">
            <mxPoint x="334" y="-77" as="sourcePoint" />
            <mxPoint x="314" y="-29" as="targetPoint" />
          </mxGeometry>
        </mxCell>
        <mxCell id="AVQ2NDTrIzkf_kXeqUEB-30" value="a" style="ellipse;whiteSpace=wrap;html=1;fontSize=16;fillColor=#f8cecc;strokeColor=#b85450;" vertex="1" parent="1">
          <mxGeometry x="463" y="-41" width="60" height="60" as="geometry" />
        </mxCell>
        <mxCell id="AVQ2NDTrIzkf_kXeqUEB-31" value="" style="edgeStyle=none;curved=1;rounded=0;orthogonalLoop=1;jettySize=auto;html=1;fontSize=16;startSize=8;endSize=8;endArrow=none;endFill=0;" edge="1" parent="1" source="AVQ2NDTrIzkf_kXeqUEB-24" target="AVQ2NDTrIzkf_kXeqUEB-30">
          <mxGeometry relative="1" as="geometry">
            <mxPoint x="533" y="131" as="sourcePoint" />
            <mxPoint x="515" y="174" as="targetPoint" />
          </mxGeometry>
        </mxCell>
        <mxCell id="AVQ2NDTrIzkf_kXeqUEB-32" value="Sub-ET 1" style="text;html=1;align=center;verticalAlign=middle;whiteSpace=wrap;rounded=0;fontSize=16;" vertex="1" parent="1">
          <mxGeometry x="-58" y="-306" width="84" height="30" as="geometry" />
        </mxCell>
        <mxCell id="AVQ2NDTrIzkf_kXeqUEB-33" value="Sub-ET 2" style="text;html=1;align=center;verticalAlign=middle;whiteSpace=wrap;rounded=0;fontSize=16;" vertex="1" parent="1">
          <mxGeometry x="459" y="-306" width="84" height="30" as="geometry" />
        </mxCell>
        <mxCell id="AVQ2NDTrIzkf_kXeqUEB-35" value="%" style="ellipse;whiteSpace=wrap;html=1;fontSize=16;fillColor=#f5f5f5;fontColor=#333333;strokeColor=#666666;" vertex="1" parent="1">
          <mxGeometry x="195" y="-368" width="60" height="60" as="geometry" />
        </mxCell>
        <mxCell id="AVQ2NDTrIzkf_kXeqUEB-36" value="" style="edgeStyle=none;curved=1;rounded=0;orthogonalLoop=1;jettySize=auto;html=1;fontSize=16;startSize=8;endSize=8;endArrow=none;endFill=0;" edge="1" parent="1" source="AVQ2NDTrIzkf_kXeqUEB-35" target="AVQ2NDTrIzkf_kXeqUEB-1">
          <mxGeometry relative="1" as="geometry">
            <mxPoint x="113" y="-179" as="sourcePoint" />
            <mxPoint x="113" y="-126" as="targetPoint" />
          </mxGeometry>
        </mxCell>
        <mxCell id="AVQ2NDTrIzkf_kXeqUEB-37" value="" style="edgeStyle=none;curved=1;rounded=0;orthogonalLoop=1;jettySize=auto;html=1;fontSize=16;startSize=8;endSize=8;endArrow=none;endFill=0;" edge="1" parent="1" source="AVQ2NDTrIzkf_kXeqUEB-35" target="AVQ2NDTrIzkf_kXeqUEB-19">
          <mxGeometry relative="1" as="geometry">
            <mxPoint x="214" y="-307" as="sourcePoint" />
            <mxPoint x="134" y="-230" as="targetPoint" />
          </mxGeometry>
        </mxCell>
        <mxCell id="AVQ2NDTrIzkf_kXeqUEB-39" value="" style="rounded=0;whiteSpace=wrap;html=1;fillColor=none;dashed=1;strokeWidth=2;" vertex="1" parent="1">
          <mxGeometry x="-53" y="-267" width="274" height="400" as="geometry" />
        </mxCell>
        <mxCell id="AVQ2NDTrIzkf_kXeqUEB-40" value="" style="rounded=0;whiteSpace=wrap;html=1;fillColor=none;dashed=1;strokeWidth=2;" vertex="1" parent="1">
          <mxGeometry x="246" y="-267" width="294" height="313" as="geometry" />
        </mxCell>
        <mxCell id="AVQ2NDTrIzkf_kXeqUEB-42" value="Linking Function" style="text;html=1;align=center;verticalAlign=middle;whiteSpace=wrap;rounded=0;fontSize=16;" vertex="1" parent="1">
          <mxGeometry x="182.5" y="-408" width="85" height="30" as="geometry" />
        </mxCell>
      </root>
    </mxGraphModel>
  </diagram>
</mxfile>
